HIERARCHY
ROOT Hips
{
	OFFSET 0 0 0
	CHANNELS 6 Xposition Yposition Zposition Yrotation Xrotation Zrotation
	JOINT Spine
	{
		OFFSET -0 8.58062 -2.73507
		CHANNELS 3 Yrotation Xrotation Zrotation
		JOINT Spine1
		{
			OFFSET -0 10.8178 0
			CHANNELS 3 Yrotation Xrotation Zrotation
			JOINT Spine2
			{
				OFFSET -0 10.8178 0
				CHANNELS 3 Yrotation Xrotation Zrotation
				JOINT Spine3
				{
					OFFSET -0 10.8178 0
					CHANNELS 3 Yrotation Xrotation Zrotation
					JOINT Neck
					{
						OFFSET -0 11.6588 3.73507
						CHANNELS 3 Yrotation Xrotation Zrotation
						JOINT Head
						{
							OFFSET -0 10.7258 0
							CHANNELS 3 Yrotation Xrotation Zrotation
							End Site
							{
								OFFSET 0 15 0
							}
						}
					}
					JOINT LeftShoulder
					{
						OFFSET 1.78763 1.10006 3.57526
						CHANNELS 3 Yrotation Xrotation Zrotation
						JOINT LeftArm
						{
							OFFSET 15.6691 0 0
							CHANNELS 3 Yrotation Xrotation Zrotation
							JOINT LeftForeArm
							{
								OFFSET 29.1935 0 0
								CHANNELS 3 Yrotation Xrotation Zrotation
								JOINT LeftHand
								{
									OFFSET 21.5798 0 0
									CHANNELS 3 Yrotation Xrotation Zrotation
									End Site
									{
										OFFSET 15 0 0
									}
								}
							}
						}
					}
					JOINT RightShoulder
					{
						OFFSET -1.78763 1.10006 3.57526
						CHANNELS 3 Yrotation Xrotation Zrotation
						JOINT RightArm
						{
							OFFSET -15.6691 0 0
							CHANNELS 3 Yrotation Xrotation Zrotation
							JOINT RightForeArm
							{
								OFFSET -29.1935 0 0
								CHANNELS 3 Yrotation Xrotation Zrotation
								JOINT RightHand
								{
									OFFSET -21.5798 0 0
									CHANNELS 3 Yrotation Xrotation Zrotation
									End Site
									{
										OFFSET -15 0 0
									}
								}
							}
						}
					}
				}
			}
		}
	}
	JOINT LeftUpLeg
	{
		OFFSET 10.7258 -3.57526 2
		CHANNELS 3 Yrotation Xrotation Zrotation
		JOINT LeftLeg
		{
			OFFSET -0 -40.1684 2.50268
			CHANNELS 3 Yrotation Xrotation Zrotation
			JOINT LeftFoot
			{
				OFFSET -0 -43.7906 -2.50268
				CHANNELS 3 Yrotation Xrotation Zrotation
				JOINT LeftToeBase
				{
					OFFSET -0 -6.90203 16.0887
					CHANNELS 3 Yrotation Xrotation Zrotation
					End Site
					{
						OFFSET 0 0 5
					}
				}
			}
		}
	}
	JOINT RightUpLeg
	{
		OFFSET -10.7258 -3.57526 2
		CHANNELS 3 Yrotation Xrotation Zrotation
		JOINT RightLeg
		{
			OFFSET -0 -40.1684 2.50268
			CHANNELS 3 Yrotation Xrotation Zrotation
			JOINT RightFoot
			{
				OFFSET -0 -43.7906 -2.50268
				CHANNELS 3 Yrotation Xrotation Zrotation
				JOINT RightToeBase
				{
					OFFSET -0 -6.90203 16.0887
					CHANNELS 3 Yrotation Xrotation Zrotation
					End Site
					{
						OFFSET 0 0 5
					}
				}
			}
		}
	}
}
MOTION
Frames: 13
Frame Time: 0.00833333
0 97.148387 0 0 0 0 0 0 0 0 0 0 0 0 0 0 0 0 0 0 0 0 0 0 0 0 0 0 0 0 0 0 0 0 0 0 0 0 0 0 0 0 0 0 0 0 0 0 0 0 0 0 0 0 0 0 0 0 0 0 0 0 0 0 0 0 0 0 0 0 0 0
-95.557019 96.742358 -12.596925 0.301482 2.613061 -0.620977 -0.821412 0.022371 0.076849 -0.627380 0.121219 0.084219 -0.086844 0.104599 0.102007 0.106489 0.132104 0.069422 -0.642698 4.196579 1.652621 -0.379269 1.582245 -1.079639 5.521119 -0.460740 4.751573 -47.075254 7.435001 -79.343119 -23.261857 17.041588 -0.077997 -1.155119 -12.517748 4.866508 -6.287972 3.420973 -0.389948 47.430425 7.069746 73.091147 21.375275 8.550907 -0.253445 -2.263559 -7.649314 -1.880555 11.377514 3.652185 2.771251 0.000000 -0.672819 0.000000 -4.022026 0.919749 -1.851485 0.000000 -8.549802 0.000000 -8.697336 3.295560 -2.426354 0.000000 -1.422724 0.000000 -4.075147 2.784787 2.182621 0.000000 -4.347243 0.000000
-95.557983 96.741254 -12.589531 0.279728 2.612560 -0.625957 -0.809372 0.027234 0.080661 -0.616891 0.105494 0.088568 -0.088721 0.110828 0.106742 0.104759 0.126359 0.070477 -0.620611 4.183498 1.611418 -0.368402 1.615414 -1.065105 5.530090 -0.451803 4.721088 -47.170935 7.528194 -79.326287 -23.234245 16.963613 -0.079107 -1.192126 -12.507012 4.879373 -6.306769 3.425022 -0.382180 47.465345 7.051574 73.045404 21.326561 8.604512 -0.192856 -2.235034 -7.568577 -1.960702 11.344503 3.659323 2.775791 0.000000 -0.665605 0.000000 -3.965961 0.894442 -1.871265 0.000000 -8.537091 0.000000 -8.701555 3.293909 -2.420982 0.000000 -1.418025 0.000000 -4.054777 2.789744 2.162725 0.000000 -4.356488 0.000000
-95.562024 96.740118 -12.584823 0.276561 2.612002 -0.625411 -0.806413 0.024314 0.074225 -0.615126 0.100139 0.086435 -0.088061 0.118181 0.108628 0.102864 0.145761 0.077612 -0.602699 4.114607 1.609254 -0.361607 1.669506 -1.080279 5.525141 -0.461626 4.731996 -47.132396 7.551408 -79.305400 -23.174235 16.957520 -0.126690 -1.185609 -12.481525 4.778278 -6.298991 3.421700 -0.358162 47.472592 7.047875 73.012144 21.331850 8.673508 -0.191601 -2.214503 -7.596279 -1.982296 11.297120 3.665491 2.774755 0.000000 -0.666273 0.000000 -3.916539 0.888073 -1.862945 0.000000 -8.526894 0.000000 -8.694055 3.296357 -2.420418 0.000000 -1.412269 0.000000 -4.060056 2.773273 2.178249 0.000000 -4.316448 0.000000
-95.563849 96.741260 -12.575321 0.263669 2.613049 -0.625301 -0.808360 0.022031 0.067355 -0.618055 0.093241 0.085709 -0.088873 0.112186 0.113896 0.102011 0.147561 0.082409 -0.565873 4.113001 1.591689 -0.345171 1.669310 -1.079038 5.523822 -0.451426 4.715058 -47.075979 7.609657 -79.302513 -23.150381 17.021484 -0.166284 -1.067820 -12.438314 4.764807 -6.281264 3.424161 -0.327104 47.483363 7.074259 72.976156 21.333265 8.652425 -0.166104 -2.180889 -7.517279 -2.028813 11.286221 3.671447 2.775780 0.000000 -0.662972 0.000000 -3.895416 0.885558 -1.865641 0.000000 -8.527836 0.000000 -8.688695 3.296718 -2.421106 0.000000 -1.408265 0.000000 -4.044993 2.777338 2.171159 0.000000 -4.343058 0.000000
-95.566650 96.739136 -12.569604 0.248625 2.614570 -0.625354 -0.803282 0.019897 0.068022 -0.613049 0.076634 0.083502 -0.083470 0.127479 0.109702 0.103608 0.155926 0.087785 -0.555515 4.099258 1.588785 -0.340376 1.659072 -1.082860 5.515081 -0.465873 4.718544 -47.138405 7.662102 -79.313757 -23.081547 16.879196 -0.176744 -1.052492 -12.307907 4.750904 -6.306993 3.413816 -0.314894 47.517582 7.066492 72.949982 21.313675 8.663189 -0.150222 -2.161823 -7.537399 -2.033396 11.276077 3.676501 2.774697 0.000000 -0.661860 0.000000 -3.858454 0.879936 -1.857933 0.000000 -8.538058 0.000000 -8.690350 3.295952 -2.419001 0.000000 -1.407687 0.000000 -4.039231 2.770338 2.161185 0.000000 -4.342922 0.000000
-95.567407 96.738373 -12.559859 0.245349 2.617051 -0.626380 -0.809471 -0.005365 0.061573 -0.619696 0.096121 0.084816 -0.083281 0.120754 0.116566 0.110000 0.165841 0.078849 -0.551318 4.077993 1.599731 -0.339368 1.663941 -1.096536 5.507823 -0.462387 4.726229 -47.075994 7.686507 -79.288672 -23.021801 16.812611 -0.259908 -1.064663 -12.076261 4.843324 -6.284868 3.407290 -0.301013 47.513641 7.065072 72.949246 21.289954 8.685557 -0.154965 -2.138057 -7.575915 -2.020162 11.273902 3.682244 2.776088 0.000000 -0.666945 0.000000 -3.852111 0.872704 -1.855341 0.000000 -8.542720 0.000000 -8.685224 3.298077 -2.417867 0.000000 -1.403568 0.000000 -4.039593 2.761559 2.170622 0.000000 -4.324538 0.000000
-95.569373 96.737024 -12.555148 0.232159 2.618052 -0.629538 -0.809344 -0.007627 0.072147 -0.617946 0.086998 0.080648 -0.088903 0.131413 0.100858 0.096290 0.163935 0.085790 -0.511330 4.060374 1.585421 -0.320584 1.661384 -1.079575 5.515435 -0.462070 4.732914 -47.090037 7.742528 -79.287735 -22.987241 16.685156 -0.308261 -0.969355 -11.958760 4.909659 -6.283618 3.421907 -0.297461 47.534938 7.025043 72.921718 21.257534 8.695091 -0.130542 -2.133650 -7.558969 -2.069810 11.242924 3.689492 2.780127 0.000000 -0.670933 0.000000 -3.816446 0.868055 -1.861774 0.000000 -8.534430 0.000000 -8.684649 3.295353 -2.413046 0.000000 -1.399902 0.000000 -4.032131 2.761687 2.132948 0.000000 -4.356878 0.000000
-95.572174 96.737994 -12.546207 0.234176 2.619533 -0.628334 -0.815819 -0.020420 0.062369 -0.626272 0.084930 0.079678 -0.088292 0.140290 0.106505 0.097538 0.168808 0.088158 -0.500308 4.053893 1.587466 -0.315895 1.648934 -1.087080 5.509629 -0.468973 4.733634 -47.047013 7.758778 -79.284575 -22.895515 16.753948 -0.348428 -0.907462 -11.930694 4.912082 -6.287670 3.420804 -0.283173 47.553889 7.025877 72.909774 21.247513 8.665269 -0.136179 -2.140068 -7.531767 -2.057782 11.239366 3.697894 2.782352 0.000000 -0.681258 0.000000 -3.810457 0.872986 -1.860565 0.000000 -8.544414 0.000000 -8.697920 3.295706 -2.415968 0.000000 -1.391182 0.000000 -4.022410 2.759666 2.164137 0.000000 -4.363556 0.000000
-95.574091 96.736285 -12.538786 0.233521 2.622163 -0.626284 -0.820395 -0.016091 0.055387 -0.632115 0.072013 0.078837 -0.089378 0.136930 0.109844 0.099693 0.169879 0.082668 -0.499159 4.014604 1.598461 -0.316476 1.702785 -1.089065 5.513848 -0.474786 4.757611 -47.110139 7.780624 -79.307150 -22.783813 16.711030 -0.358979 -0.816001 -11.879142 4.887068 -6.291151 3.421459 -0.288142 47.529798 6.999636 72.907958 21.219568 8.665273 -0.103412 -2.133079 -7.500569 -2.101407 11.237005 3.701565 2.780817 0.000000 -0.678968 0.000000 -3.804808 0.857013 -1.864812 0.000000 -8.535197 0.000000 -8.695156 3.297900 -2.415199 0.000000 -1.390226 0.000000 -4.033848 2.738011 2.165675 0.000000 -4.385569 0.000000
-95.577216 96.735925 -12.530782 0.242149 2.622570 -0.627701 -0.830165 -0.029984 0.055157 -0.640833 0.072127 0.074161 -0.096827 0.135298 0.102339 0.092120 0.184276 0.077854 -0.460441 4.028298 1.635282 -0.301330 1.657977 -1.113786 5.509666 -0.474606 4.789047 -47.074788 7.793204 -79.292667 -22.696685 16.761460 -0.408092 -0.844035 -12.004426 4.790522 -6.258879 3.414540 -0.265660 47.489074 6.995679 72.913062 21.212479 8.694934 -0.100277 -2.148498 -7.542793 -2.116062 11.227453 3.706164 2.786189 0.000000 -0.683828 0.000000 -3.804220 0.859463 -1.879766 0.000000 -8.521607 0.000000 -8.706411 3.297707 -2.412411 0.000000 -1.380814 0.000000 -4.034082 2.748465 2.172751 0.000000 -4.397330 0.000000
-95.577142 96.734991 -12.523693 0.244726 2.624742 -0.631736 -0.846353 -0.031961 0.060004 -0.657928 0.056292 0.080634 -0.081678 0.132313 0.105256 0.110717 0.193375 0.072434 -0.476762 4.024150 1.602821 -0.306119 1.678709 -1.079979 5.477718 -0.473745 4.783927 -47.040572 7.834755 -79.285388 -22.638732 16.777439 -0.421878 -0.803406 -12.015033 4.687983 -6.267447 3.408090 -0.290231 47.474641 6.958898 72.931428 21.149138 8.629533 -0.102141 -2.098668 -7.435472 -2.066005 11.217575 3.710533 2.789509 0.000000 -0.686976 0.000000 -3.796299 0.862026 -1.884082 0.000000 -8.557126 0.000000 -8.714075 3.299356 -2.407597 0.000000 -1.375403 0.000000 -4.035624 2.741932 2.156202 0.000000 -4.397031 0.000000
-95.579279 96.734766 -12.514871 0.259721 2.625693 -0.625585 -0.861339 -0.030632 0.048815 -0.672283 0.050232 0.074081 -0.082453 0.145510 0.103784 0.109641 0.165582 0.073615 -0.459074 4.000528 1.639987 -0.301827 1.719976 -1.111741 5.493997 -0.466577 4.804682 -47.089175 7.879158 -79.292799 -22.571553 16.731563 -0.413442 -0.792884 -11.908664 4.664476 -6.282677 3.455137 -0.277021 47.457122 6.932059 72.892788 21.150826 8.627332 -0.073720 -2.119332 -7.422217 -2.087985 11.215722 3.710427 2.786604 0.000000 -0.682837 0.000000 -3.808799 0.860049 -1.888230 0.000000 -8.567630 0.000000 -8.731904 3.301208 -2.414138 0.000000 -1.367586 0.000000 -4.034272 2.714429 2.167126 0.000000 -4.397942 0.000000
